<?xml version="1.0" encoding="UTF-8" standalone="no"?>
<!-- Created with Inkscape (http://www.inkscape.org/) -->

<svg
   xmlns:dc="http://purl.org/dc/elements/1.1/"
   xmlns:cc="http://creativecommons.org/ns#"
   xmlns:rdf="http://www.w3.org/1999/02/22-rdf-syntax-ns#"
   xmlns:svg="http://www.w3.org/2000/svg"
   xmlns="http://www.w3.org/2000/svg"
   xmlns:xlink="http://www.w3.org/1999/xlink"
   xmlns:sodipodi="http://sodipodi.sourceforge.net/DTD/sodipodi-0.dtd"
   xmlns:inkscape="http://www.inkscape.org/namespaces/inkscape"
   width="3188.9763"
   height="3188.9763"
   id="svg3107"
   version="1.0"
   inkscape:version="0.47 r22583"
   sodipodi:docname="Logo-club-banner.svg"
   sodipodi:version="0.32"
   inkscape:output_extension="org.inkscape.output.svg.inkscape"
   inkscape:export-filename="/home/san/Downloads/Cronometro-sase/logo-club-banner.png"
   inkscape:export-xdpi="22.856911"
   inkscape:export-ydpi="22.856911">
  <defs
     id="defs3109">
    <inkscape:perspective
       sodipodi:type="inkscape:persp3d"
       inkscape:vp_x="0 : 526.18109 : 1"
       inkscape:vp_y="0 : 1000 : 0"
       inkscape:vp_z="744.09448 : 526.18109 : 1"
       inkscape:persp3d-origin="372.04724 : 350.78739 : 1"
       id="perspective3115" />
    <inkscape:perspective
       id="perspective3047"
       inkscape:persp3d-origin="0.5 : 0.33333333 : 1"
       inkscape:vp_z="1 : 0.5 : 1"
       inkscape:vp_y="0 : 1000 : 0"
       inkscape:vp_x="0 : 0.5 : 1"
       sodipodi:type="inkscape:persp3d" />
    <path
       sodipodi:type="arc"
       style="fill: none; stroke: rgb(255, 255, 255); stroke-width: 1px; stroke-linecap: butt; stroke-linejoin: miter; stroke-opacity: 1;"
       id="path3118-1-1"
       sodipodi:cx="437.5"
       sodipodi:cy="266.5"
       sodipodi:rx="244.5"
       sodipodi:ry="226.5"
       d="M 682,266.5 A 244.5,226.5 0 1 1 193,266.5 A 244.5,226.5 0 1 1 682,266.5 z"
       transform="matrix(0.499491, -0.721348, 0.778674, 0.539186, -246.044, 404.397)"
       inkscape:transform-center-x="-0.72548506"
       inkscape:transform-center-y="0.72959895" />
    <path
       transform="matrix(-1.04073, 0, 0, 1.12344, 133.72, -182.529)"
       d="M 682,266.5 A 244.5,226.5 0 1 1 193,266.5 A 244.5,226.5 0 1 1 682,266.5 z"
       sodipodi:ry="226.5"
       sodipodi:rx="244.5"
       sodipodi:cy="266.5"
       sodipodi:cx="437.5"
       id="path3118-74-3"
       style="fill: none; stroke: none;"
       sodipodi:type="arc" />
    <inkscape:perspective
       id="perspective3001"
       inkscape:persp3d-origin="0.5 : 0.33333333 : 1"
       inkscape:vp_z="1 : 0.5 : 1"
       inkscape:vp_y="0 : 1000 : 0"
       inkscape:vp_x="0 : 0.5 : 1"
       sodipodi:type="inkscape:persp3d" />
    <inkscape:perspective
       id="perspective3731"
       inkscape:persp3d-origin="0.5 : 0.33333333 : 1"
       inkscape:vp_z="1 : 0.5 : 1"
       inkscape:vp_y="0 : 1000 : 0"
       inkscape:vp_x="0 : 0.5 : 1"
       sodipodi:type="inkscape:persp3d" />
    <inkscape:perspective
       sodipodi:type="inkscape:persp3d"
       inkscape:vp_x="0 : 0.5 : 1"
       inkscape:vp_y="0 : 1000 : 0"
       inkscape:vp_z="1 : 0.5 : 1"
       inkscape:persp3d-origin="0.5 : 0.33333333 : 1"
       id="perspective2970" />
    <inkscape:perspective
       sodipodi:type="inkscape:persp3d"
       inkscape:vp_x="0 : 0.5 : 1"
       inkscape:vp_y="0 : 1000 : 0"
       inkscape:vp_z="1 : 0.5 : 1"
       inkscape:persp3d-origin="0.5 : 0.33333333 : 1"
       id="perspective2638" />
    <inkscape:perspective
       sodipodi:type="inkscape:persp3d"
       inkscape:vp_x="0 : 0.5 : 1"
       inkscape:vp_y="0 : 1000 : 0"
       inkscape:vp_z="1 : 0.5 : 1"
       inkscape:persp3d-origin="0.5 : 0.33333333 : 1"
       id="perspective2636" />
    <path
       sodipodi:type="arc"
       style="fill: none; stroke: none;"
       id="path2634"
       sodipodi:cx="437.5"
       sodipodi:cy="266.5"
       sodipodi:rx="244.5"
       sodipodi:ry="226.5"
       d="M 682,266.5 A 244.5,226.5 0 1 1 193,266.5 A 244.5,226.5 0 1 1 682,266.5 z"
       transform="matrix(-1.04073, 0, 0, 1.12344, 133.72, -182.529)" />
    <path
       inkscape:transform-center-y="0.72959895"
       inkscape:transform-center-x="-0.72548506"
       transform="matrix(0.499491, -0.721348, 0.778674, 0.539186, -246.044, 404.397)"
       d="M 682,266.5 A 244.5,226.5 0 1 1 193,266.5 A 244.5,226.5 0 1 1 682,266.5 z"
       sodipodi:ry="226.5"
       sodipodi:rx="244.5"
       sodipodi:cy="266.5"
       sodipodi:cx="437.5"
       id="path2632"
       style="fill: none; stroke: rgb(255, 255, 255); stroke-width: 1px; stroke-linecap: butt; stroke-linejoin: miter; stroke-opacity: 1;"
       sodipodi:type="arc" />
    <inkscape:perspective
       sodipodi:type="inkscape:persp3d"
       inkscape:vp_x="0 : 0.5 : 1"
       inkscape:vp_y="0 : 1000 : 0"
       inkscape:vp_z="1 : 0.5 : 1"
       inkscape:persp3d-origin="0.5 : 0.33333333 : 1"
       id="perspective2630" />
    <inkscape:perspective
       id="perspective2628"
       inkscape:persp3d-origin="372.04724 : 350.78739 : 1"
       inkscape:vp_z="744.09448 : 526.18109 : 1"
       inkscape:vp_y="0 : 1000 : 0"
       inkscape:vp_x="0 : 526.18109 : 1"
       sodipodi:type="inkscape:persp3d" />
  </defs>
  <sodipodi:namedview
     id="base"
     pagecolor="#ffffff"
     bordercolor="#666666"
     borderopacity="1.0"
     inkscape:pageopacity="0.0"
     inkscape:pageshadow="2"
     inkscape:zoom="0.175"
     inkscape:cx="1582.535"
     inkscape:cy="993.20822"
     inkscape:document-units="px"
     inkscape:current-layer="layer1"
     showgrid="false"
     inkscape:window-width="1276"
     inkscape:window-height="1001"
     inkscape:window-x="0"
     inkscape:window-y="19"
     inkscape:window-maximized="1"
     units="m" />
  <metadata
     id="metadata3112">
    <rdf:RDF>
      <cc:Work
         rdf:about="">
        <dc:format>image/svg+xml</dc:format>
        <dc:type
           rdf:resource="http://purl.org/dc/dcmitype/StillImage" />
        <dc:title />
      </cc:Work>
    </rdf:RDF>
  </metadata>
  <g
     inkscape:label="Capa 1"
     inkscape:groupmode="layer"
     id="layer1">
    <g
       id="g3560">
      <g
         id="g3419"
         transform="matrix(8.07855, 0, 0, 8.07855, -1417.66, -490.395)">
        <path
           sodipodi:type="arc"
           style="fill: none; stroke: rgb(0, 0, 0); stroke-width: 1px; stroke-linecap: butt; stroke-linejoin: miter; stroke-opacity: 1;"
           id="path3118-74"
           sodipodi:cx="437.5"
           sodipodi:cy="266.5"
           sodipodi:rx="244.5"
           sodipodi:ry="226.5"
           d="M 682,266.5 C 682,391.5925 572.53362,493 437.5,493 302.46638,493 193,391.5925 193,266.5 193,141.4075 302.46638,40 437.5,40 572.53362,40 682,141.4075 682,266.5 z"
           transform="matrix(0.790381, 0, 0, 0.85819, 27.1499, 29.4834)" />
        <path
           sodipodi:type="arc"
           style="fill: none; stroke: rgb(0, 0, 0); stroke-width: 1px; stroke-linecap: butt; stroke-linejoin: miter; stroke-opacity: 1;"
           id="path3118-7-2"
           sodipodi:cx="437.5"
           sodipodi:cy="266.5"
           sodipodi:rx="244.5"
           sodipodi:ry="226.5"
           d="M 682,266.5 C 682,391.5925 572.53362,493 437.5,493 302.46638,493 193,391.5925 193,266.5 193,141.4075 302.46638,40 437.5,40 572.53362,40 682,141.4075 682,266.5 z"
           transform="matrix(0.650902, 0, 0, 0.706745, 88.172, 69.8436)" />
        <path
           style="fill:none;stroke:rgb(0, 0, 0);stroke-opacity:1;fill-opacity:1"
           d="M 358.58434,451.32949 C 335.3028,448.90988 317.00855,444.98518 298.66655,437.25556 C 245.67366,414.92346 205.7948,369.72814 188.94956,314.66331 C 183.06696,295.43393 179.99654,280.68689 179.97239,258.65933 C 179.94829,236.58678 182.73777,223.06633 188.56574,203.14195 C 206.13365,143.08165 252.45698,94.116883 311.98964,74.043723 C 332.09607,67.264263 350.47697,64.417443 372.9026,64.411323 C 390.2944,64.406323 400.95079,65.850703 416.23728,69.302153 C 482.26458,84.210093 535.16193,133.96933 556.01111,198.94033 C 562.50011,219.16161 565.04734,235.81418 565.06683,258.14235 C 565.09083,285.63572 560.87141,306.95026 550.22747,333.10395 C 533.20658,374.9267 499.78434,411.74055 458.60878,432.08055 C 431.61715,445.41393 406.81532,451.46668 376.81105,452.03346 C 368.45714,452.19127 360.25512,451.50313 358.58434,451.32947 L 358.58434,451.32949 L 358.58434,451.32949 z M 399.46017,416.41851 C 432.99535,410.53297 461.77976,395.83611 485.84275,371.63217 C 528.11825,329.10905 543.06658,268.56131 525.586,210.58009 C 511.29987,163.19456 473.1209,123.84108 426.18063,106.55436 C 381.2852,90.020693 330.66033,95.762723 290.25724,120.76365 C 274.83546,130.30645 256.22317,146.85703 246.07633,160.36386 C 231.67303,179.5366 221.37828,202.01978 216.69505,224.53099 C 203.10959,289.83321 230.11113,355.38763 285.32084,392.45967 C 294.6946,398.75393 312.22878,407.45403 322.38052,410.77737 C 331.98154,413.92043 346.31599,416.6895 355.79203,417.73162 C 366.2305,418.87957 388.96338,418.26073 399.46017,416.41851 L 399.46017,416.41851 z"
           id="path3428"
           sodipodi:nodetypes="csssssssssssscccsssssssssc" />
        <text
           xml:space="preserve"
           style="font-size: 42px; font-style: normal; font-variant: normal; font-weight: bold; font-stretch: normal; text-align: start; line-height: 125%; text-anchor: start; fill: rgb(0, 0, 0); fill-opacity: 1; stroke: none; font-family: Arial;"
           id="text3187-0"
           inkscape:transform-center-y="-187.05759"
           inkscape:transform-center-x="6.307735"
           sodipodi:linespacing="125%"
           transform="matrix(-0.0841801, -0.758579, 0.754058, -0.0965018, 209.687, 419.061)"><textPath
             style="font-size: 45.5px; font-style: normal; font-variant: normal; font-weight: bold; font-stretch: normal; text-align: start; line-height: 125%; text-anchor: start; font-family: Arial;"
             xlink:href="#path3118-1-1"
             id="textPath3239-9">CLUB DE ROBÓTICA</textPath></text>
        <path
           sodipodi:type="arc"
           style="fill: none; stroke: none;"
           id="path3103"
           sodipodi:cx="437.5"
           sodipodi:cy="266.5"
           sodipodi:rx="244.5"
           sodipodi:ry="226.5"
           d="M 682,266.5 C 682,391.5925 572.53362,493 437.5,493 302.46638,493 193,391.5925 193,266.5 193,141.4075 302.46638,40 437.5,40 572.53362,40 682,141.4075 682,266.5 z"
           transform="matrix(-0.790381, 0, 0, 0.85819, 718.153, 28.8424)" />
        <text
           xml:space="preserve"
           style="font-size: 40px; font-style: normal; font-weight: normal; line-height: 300%; fill: rgb(0, 0, 0); fill-opacity: 1; stroke: none; font-family: Bitstream Vera Sans;"
           id="text4423"
           transform="matrix(0.183444, -0.736517, 0.736958, 0.203629, 340.624, -7.50368)"
           inkscape:transform-center-x="24.041631"
           inkscape:transform-center-y="0.1355269"
           sodipodi:linespacing="300%"><textPath
             style="font-size: 45.5px; font-style: normal; font-variant: normal; font-weight: bold; font-stretch: normal; text-align: start; line-height: 300%; text-anchor: start; font-family: Arial;"
             xlink:href="#path3118-74-3"
             id="textPath4427">FIUBA</textPath></text>
        <path
           sodipodi:type="arc"
           style="opacity:0.5;fill:none;stroke:#000000;stroke-width:3.5;stroke-linecap:round;stroke-linejoin:round;stroke-miterlimit:10;stroke-opacity:0.20100505;stroke-dasharray:none;stroke-dashoffset:0"
           id="path3716"
           sodipodi:cx="1058.6399"
           sodipodi:cy="364.58987"
           sodipodi:rx="270.72089"
           sodipodi:ry="294.96454"
           d="m 1329.3608,364.58987 a 270.72089,294.96454 0 1 1 -541.44179,0 270.72089,294.96454 0 1 1 541.44179,0 z"
           transform="matrix(0.12378459,0,0,0.12378459,327.53469,145.23127)" />
        <g
           inkscape:label="Capa 1"
           id="g2641"
           transform="translate(-15.480565,-522.64133)">
          <g
             id="g2643">
            <g
               style="fill:#ffffff"
               id="g2645"
               transform="matrix(1.57339,0,0,1.57339,-348.742,567.562)" />
            <g
               id="g3766"
               transform="translate(-1.57e-4,3.1886e-4)"
               style="fill:#000000" />
            <path
               id="path4048-7-9-4-8-7-4-2-2"
               style="fill:#000000;stroke:#000000;stroke-width:0.28704199px;stroke-linecap:butt;stroke-linejoin:miter;stroke-opacity:1"
               d="m 359.08705,680.73078 c 1.73264,-1.89525 4.24833,-2.89655 3.44003,-8.17224 -2.32463,-4.20709 -5.37089,-10.11565 -0.38892,-15.02181 1.38347,-1.36242 2.44564,-1.93062 4.40363,-2.19386 1.958,-0.26323 5.4813,0.39809 7.78972,3.47353 1.69048,3.05424 3.16688,9.36131 -0.42504,15.07833 -3.82032,6.35803 -11.24386,7.00444 -14.81942,6.83605 l 0,0 z m -25.91799,4.35992 c 1.20441,-2.26791 3.39032,-3.86576 1.29006,-8.77241 -3.30165,-3.49321 -7.72701,-8.45376 -4.12819,-14.44867 0.99938,-1.66476 1.88599,-2.48022 3.71619,-3.22411 1.83021,-0.74389 5.40703,-0.98345 8.41037,1.41803 2.39969,2.53527 5.40445,8.27376 3.35414,14.70668 -2.11139,7.11065 -9.13825,9.59056 -12.64257,10.32048 l 0,0 z m -21.15698,14.44868 c 1.26054,-0.79206 2.64307,-2.75355 4.41749,-5.18734 1.94379,-2.66613 3.26924,-6.26929 2.29079,-10.8094 -1.21927,-7.00461 -5.73287,-10.23766 -10.83649,-10.06248 -4.10663,0.35688 -7.01617,3.30499 -6.70829,8.25639 0.80512,5.29153 5.70132,6.99557 7.74035,8.25638 2.87687,2.11535 3.55041,4.74728 3.09615,9.54645 l 0,0 z M 300,646.63797 300,666.5 c 1.46741,1.56111 2.80104,1.02013 4.84375,0.21875 6.90133,-2.7872 12.18591,1.29259 16.96875,6 0.13772,-6.98919 1.85884,-15.36149 9.5,-19.28125 8.90687,-2.87917 15.83324,0.0372 20.1875,9.71875 3.934,-6.80161 7.29952,-12.44674 16,-12.625 10.70638,-0.1364 12.32109,6.65738 13.65625,9.53125 4.55053,14.1498 -7.66336,22.61068 -12.90625,25.8125 -19.03216,-2.30126 -27.88806,1.41634 -36.125,5.15625 -21.15855,12.90427 -34.38005,36.02054 -31.09375,61.125 1.64227,8.86916 4.3205,14.49676 7.75,19.28125 l 16.09375,-19.09375 1.28125,1.09375 -16.3125,19.4375 c 0.97438,1.26295 2.01894,2.46896 3.09375,3.6875 L 325,762.21875 l 1.28125,1.0625 -12.1875,14.59375 c 0.90931,1.00655 1.88083,2.06723 2.84375,3.125 l 8,-8.96875 1.25,1.15625 -8.125,9.0625 c 5.04118,4.76585 10.75834,8.95675 16.875,11.875 -1.69689,-23.60004 9.17542,-36.32948 20.875,-51.5 l -17.25,-12.71875 c -4.35547,5.56213 -9.93446,7.3963 -15.34375,1.1875 -5.94753,3.64525 -10.04667,13.48474 -9.6875,23.71875 -2.58906,-6.44049 -9.11321,-12.13181 -5.53125,-26.59375 -3.40085,7.62674 -5.62334,13.94371 -0.25,38.625 L 305.59375,762.25 c -13.84191,-33.61366 16.01605,-73.23262 55.65625,-71.1875 -21.31014,-0.44567 -61.65798,22.49849 -49.0625,55 0.18618,-7.23018 4.79564,-14.00038 12.75,-20.28125 6.89557,-4.8501 9.6396,-3.27042 12.3125,-0.875 L 360.1875,742.25 c -9.67177,8.72454 -14.01352,17.37292 -17.09375,24.125 -9.67048,17.14472 -4.87299,30.3894 -0.28125,39.09375 3.1363,-1.93284 6.35542,-2.86792 9.96875,-3 4.89622,-0.42123 3.79072,5.30658 3.25,8.65625 -1.02821,4.37846 -3.72052,8.00323 -7.625,10.1875 -6.05214,1.917 -11.3791,1.28039 -13.40625,-0.0625 -3.99559,-2.19757 -6.24582,-5.27739 -7.75,-9.46875 -1.73569,-5.12911 -2.0978,-10.15439 -5.9375,-14.1875 -8.0114,-5.57483 -16.74077,-12.4636 -21.3125,-18.0625 l 0,36.375 c 3.5685,0.12761 8.40662,1.92973 10.71875,6.96875 3.02944,7.87863 6.2758,23.21216 26.0625,28.375 9.19866,1.34157 29.3618,-2.28537 42.84375,-25.03125 6.52714,-13.70342 7.63319,-29.29758 3.84375,-44.375 l 10.0625,-6.71875 c -0.97167,-4.41062 -2.57612,-9.89342 7.75,-17.03125 l 62.4375,-39.71875 -58.8125,-21.40625 c -11.22248,-4.72816 -18.51499,0.75314 -23.5,8.5 -1.47886,-5.8215 -3.85017,-10.26589 4.78125,-17.65625 4.5749,-3.25884 9.47435,-3.7399 14.59375,-1.9375 l 56.75,19.59375 c 7.08414,-2.91881 14.36919,0.34209 17.46875,-13.9375 l -0.50017,-45.39344 c 0,0 -34.42631,-27.47773 -85.56001,-26.06008 C 337.3126,621.50906 300,646.63797 300,646.63797 z M 410.25,711.125 c 3.04556,0.068 6.26353,0.78708 9.34375,2.09375 5.26023,13.3753 -14.59891,26.38609 -23.71875,15.21875 -2.32956,-12.00147 5.23833,-17.51657 14.375,-17.3125 z m -24.96875,11.125 c 5.44453,3.47852 5.00048,13.25445 5.4375,15.46875 3.95619,-2.92423 9.70006,-0.86239 13.65625,2.34375 -3.83706,14.03602 -15.64861,16.03284 -25.28125,9.78125 -9.79973,-10.86057 -6.01632,-21.76661 6.1875,-27.59375 z m -19.09375,21.9375 c 6.14655,2.80482 5.67733,8.71563 5.15625,14.1875 4.98826,-1.49535 9.48054,-3.13973 14.46875,0.75 -1.31121,16.06505 -16.41185,16.71284 -24,12.40625 -8.80787,-8.36099 -7.91596,-23.29538 4.375,-27.34375 z m -18.3125,24.25 c 5.06348,0.97449 6.32109,6.89009 8,12.625 4.47223,-1.48481 10.74653,-5.41201 15.21875,-0.5 0.12113,14.17021 -13.10473,19.50771 -22.6875,14.1875 -11.23093,-5.41048 -10.642,-20.37738 -0.53125,-26.3125 z M 459.75,732.6875 417,758.875 c 0,0 -17.96094,25.05469 -18.3125,26.0625 -0.70312,1.40625 -1.3125,4.4375 -1.4375,7.75 0.37719,9.78743 8.91197,16.85405 20.03125,17.3125 2.95024,-0.31032 6.4375,-4.15625 6.4375,-4.15625 -0.21661,3.02501 -0.68436,5.01489 -2.125,7.65625 -5.56599,10.5012 -17.02131,9.90892 -25.46875,3.4375 0,0 3.00536,11.07982 3.09375,18.0625 -0.10681,8.38885 -0.509,17.38051 -3.5625,26.125 -4.78365,9.98209 -6.4976,11.38471 -9.59375,14.90625 -4.18607,3.91863 -7.14454,5.94441 -13.02839,9.42438 -11.38096,6.34276 -19.18117,4.2195 -29.03411,0.88812 -8.41897,-3.26863 -12.23488,-11.43162 -14.96875,-21.15625 -10.0445,5.23196 -14.20858,19.28596 -4.65625,27.09375 -4.86318,3.00349 -11.06946,3.02204 -15.21875,0.78125 -6.52145,-4.90223 -7.83306,-9.81651 -9.15625,-14.71875 l 0.50017,37.01902 c 0,0 44.77472,27.334 89.78172,27.07586 45.007,-0.25814 84.46803,-25.82545 84.46803,-25.82545 L 475,894.09375 c -5.41826,0.69946 -10.76924,-0.55216 -16.1875,-2.59375 -7.2405,-2.35967 -11.32667,-5.71052 -17.28125,-10.3125 -9.3984,-6.83535 -14.3291,-16.56968 -18.0625,-27.34375 C 421.3245,847.04573 420.52708,838.12415 421.3125,831 l 10.1875,4.53125 c 5.92521,2.14103 8.97394,3.56942 15.65625,3.25 4.51568,-0.69643 8.22691,-2.76112 10.25,-9.0625 0.59207,-2.28469 0.61676,-2.23241 0.5,-3.90625 -0.0781,-0.95312 -0.34375,-1.53125 0.46875,-2.34375 1.52988,-1.52447 1.92265,-3.17217 0.6875,-5.375 0.10937,-2.23437 0.60938,-2.875 1.15625,-3.3125 1.23437,-0.85156 1.79688,-0.32031 2.59375,-1.21875 0.80913,-1.05023 1.37968,-2.94013 -0.15625,-6.28125 -0.15653,-0.9229 -0.1864,-0.95852 -0.28125,-1.84375 -0.0415,-2.25703 -0.33769,-4.37838 -1.40625,-5.9375 0,0 1.04387,-0.67613 1.1875,-0.875 0,0 1.52344,-1.53906 2.4375,-1.59375 0.82031,-0.14844 3.21094,0.10937 3.75,-0.1875 0.85074,-0.46404 1.06664,-0.7503 1.5625,-1.3125 0.27621,0.12154 0.48863,0.12118 0.6875,-0.0937 1.93694,-2.41408 1.92016,-13.34795 1.84375,-18.21875 -0.0635,-12.70629 -0.11821,-26.77762 -12.6875,-44.53125 l 0,-5e-5 z m -4.82512,3.32889 c 10.16494,14.62993 14.72156,36.03782 9.04387,53.10861 -0.53952,1.16167 0.51298,0.72122 2.25,2.5 0.78427,0.80317 2.31314,2.9918 3.46334,3.72439 0,0 -0.65992,0.9455 -1.43331,1.24381 -0.6411,0.34913 -2.74228,0.029 -3.66999,0.17645 -1.125,0.1875 -2.61585,1.65948 -2.61585,1.65948 -0.1602,0.19888 -1.15462,0.82785 -1.15462,0.82785 -0.74782,-0.93036 -1.84085,-1.6148 -3.49582,-2.31948 -2.50155,-0.96318 -2.89161,-5.51248 -2.28125,-6.5 -2.36128,-0.62876 -4.86394,-1.31167 -7.15625,-2.375 -4.42941,-1.95237 -8.37259,-4.27973 -12.03125,-7.46875 -4.06771,-3.2738 -7.30763,-7.3174 -10.3125,-11.5625 -2.34625,-3.47864 -4.61307,-8.26462 -5.26745,-11.61778 l 2.6875,-1.65625 c 0,2.34944 3.12289,8.98179 5.14245,12.11778 3.11114,4.831 10.10288,11.65537 15.15625,14.5625 3.05157,1.75552 11.18409,5.35194 13.125,5.59375 2.9557,0.75605 4.05974,1.20112 5.5625,-2.15625 1.02315,-2.61324 1.20481,-3.17649 1.9375,-9.6875 0.82065,-13.82941 -3.98126,-27.11055 -10.54387,-39.20236 l 1.59375,-0.96875 0,0 z m -16.01863,14.42111 c 1.64989,0.0226 3.09723,0.41545 4,1.03125 7.17562,4.89466 8.64458,19.02227 4.65625,21.40625 -8.4375,5.0434 -20.94284,-8.6841 -18.5625,-15.71875 1.7077,-5.0468 6.27649,-6.76851 9.90625,-6.71875 z m -0.96875,2.875 c -0.81205,-0.0314 -1.69841,0.054 -2.65625,0.21875 -3.398,0.94634 -5.81577,5.99711 -2.9375,9.125 6.24628,-0.58953 10.94546,0.36653 15.0625,1.90625 -1.49223,-6.20792 -3.78438,-11.02999 -9.46875,-11.25 z m -1.75,10.71875 c -1.14918,0.037 -2.18473,0.19431 -3.125,0.46875 2.63207,3.36596 5.56183,6.68433 10,7.40625 2.76678,0.31787 5.041,-2.78524 4.1875,-5.625 -3.87228,-1.39578 -7.14756,-2.14216 -9.875,-2.25 -0.40911,-0.0162 -0.80444,-0.0123 -1.1875,0 z m -20.28125,2.75 c 7.50701,8.1496 9.16143,20.05626 7.0625,30.71875 -0.25071,0.87637 -0.0736,1.27701 0.65625,1.53125 4.64363,1.61744 20.99669,7.94493 22.15625,8.5625 0.8081,0.4304 2.51663,1.65736 3.71875,1.34375 5.90144,-1.53959 8.27835,-1.05893 8.78125,0.0625 0.15778,0.35185 3.46522,1.94581 4.125,2.28125 0.40319,0.2045 0.77906,0.39077 0.9375,0.5625 -0.0102,0.50602 -0.30584,1.08459 -0.65625,1.59375 -0.77774,0.8134 -1.4422,0.42314 -2.625,1.21875 -0.67969,0.51562 -0.98438,1.32031 -1.21875,3.1875 -0.9262,-1.28856 -2.7278,-2.42001 -5.6875,-2.5 -1.353,-0.0366 -2.91378,-1.91758 -5.25,-3.125 -16.4824,-6.74203 -34.39652,-12.1343 -50.21875,-19.53125 0.0207,-1.43619 0.30462,-3.587 0.46875,-4.0625 l 17.6875,7.3125 c 2.3211,1.04543 2.82138,0.58514 3.59375,-3.09375 0.96718,-8.14068 -0.0836,-16.7366 -5.53125,-23.1875 0.59653,-0.4564 1.42043,-1.57597 2,-2.875 z m 32.75,49.0625 c 1.00199,-0.058 2.24104,0.86855 4.375,2.4375 1.94975,1.23846 2.62551,2.74961 6.25,3.3125 7.9e-4,10e-4 0.021,0.64977 -1.09375,1.75 -0.78907,1.07032 -0.52943,1.55047 -0.46875,2.46875 0.10605,1.6047 0.0757,1.47195 -0.53125,3.8125 -2.05391,6.09453 -5.26163,8.10123 -9.84375,8.9375 -6.67151,0.2185 -9.43413,-1.05806 -15.5625,-3.21875 -12.53609,-5.50782 -14.80421,-7.14752 -27.34375,-12.4375 l 5.03125,-0.0937 12.5625,5.8125 c 5.63295,3.22089 18.38964,8.1151 24.40625,7.78125 5.04033,-0.18815 8.44227,-4.10505 9.5625,-8.90625 0.0368,-1.41666 -0.72003,-1.81511 -3.8125,-3.28125 -3.6698,-1.73985 -5.38575,-2.85899 -5.46875,-4.59375 -0.0595,-1.24507 -0.002,-2.31809 0.65625,-3.0625 0.41907,-0.47384 0.8258,-0.69239 1.28125,-0.71875 l 0,-5e-5 z m -37.71875,12.21875 8.90625,4.375 -0.71875,33.625 -1.84375,1.96875 -2.03125,33.09375 2.0625,2.65625 -5.06242,35.58978 -26.87541,2.25075 -3.49967,-38.52803 2.15625,-3.75 -1.65625,-18.71875 4.96875,-4.28125 2,22.25 2.875,3.1875 3.8125,38.78009 5.81225,0.24926 5.469,-37.34185 2.90625,-2.53125 1.78125,-33.15625 -1.46875,-2.3125 0.40625,-37.40625 z m 9.21875,32.25 5.46875,14.6875 2.4375,1.34375 11.3125,29.375 c -3.29246,1.72357 -6.4375,5.71875 -6.4375,5.71875 l -12.0625,-31.28125 0.5625,-3.5 -2.53125,-8.9375 1.125,-1.25 0.125,-6.15625 z m -46.4375,25.84375 -9.73978,23.20853 c 0,0 -4.05048,-2.7857 -6.20965,-3.563 l 6.93183,-15.85518 c 3.26948,-0.36417 8.98817,-3.72023 9.0176,-3.79035 z m -23.5625,9.375 c 5.56392,2.73183 6.31975,6.91918 6.69943,9.90059 0,0 -3.90466,-1.21494 -5.24335,-1.3229 0,0 -0.29021,-3.10913 -2.54983,-4.45269 -3.82781,-1.01808 -5.53719,-0.35181 -8.9375,0.28125 L 301,909.96875 l 0,-5.3125 37.65625,-9.125 c 3.94504,-0.83968 7.70472,-1.53556 11.5,0 z m 106.0625,1.84375 C 458.67187,897.35938 474,900.21875 474,900.21875 l 0,4.15625 c 0,0 -14.34375,-2.96875 -16.625,-2.96875 -6.53322,-0.48784 -8.76972,-0.48897 -11.54912,3.03768 0,0 -3.60223,0.0583 -5.54463,1.02482 4.52671,-7.44579 9.63633,-7.80283 15.9375,-8.09375 l 0,0 z m -110.4375,7.46875 c 3.72124,-0.002 7.5335,0.22874 11.34375,1.84375 3.85194,1.63267 11.12201,5.68244 14.46875,16.59375 1.79892,7.21471 3.77341,12.29756 6.78125,17.21875 -7.46407,0.2306 -8.81566,-3.48341 -5.15625,-0.15625 -3.23848,-5.56979 -4.43991,-11.32322 -6.25,-16.59375 -2.03292,-5.86258 -6.17766,-10.26819 -11.53125,-13.21875 -6.89515,-2.30179 -15.52243,-0.17142 -23.28125,1.78125 L 308.2524,919.437 301,915.25 l 33.53125,-8.84375 c 3.82122,-0.98776 7.52876,-1.56083 11.25,-1.5625 l 0,0 z m 102.84375,0.625 c 8.50542,-0.12728 17.01203,1.26685 25.375,2.71875 l 0,4.4375 c -8.10286,-1.42427 -26.54418,-3.28582 -30.625,-2 -3.16961,1.27639 -5.95539,2.81556 -9.25,8.46875 -4.40897,11.70356 -0.26983,7.98501 -9.4666,18.27662 l -8.62608,1.5005 c 12.69639,-7.75294 9.84907,-10.57572 13.78018,-20.74587 3.05319,-5.51539 7.45107,-11.55246 12.9375,-12.3125 1.96271,-0.21027 3.91221,-0.31438 5.875,-0.34375 z"
               sodipodi:nodetypes="ccsscccccssccccscccccccccccccccccccccccccccccccccccccccccccccccccccccccccccccccccccczcccccccccccccccccccccccccccccccccccccczcccccccsccccccccscccccccsccscccccccccssccccccsssccccccccccccccsscssccccscccccccccsccccccccccssscccccccccccccccccccccccccccccccccccccccccccccccccccccccscsccsccccccccccccccccccccc" />
          </g>
        </g>
      </g>
    </g>
    <path
       style="opacity:0.5;fill:none;stroke:#000000;stroke-width:20;stroke-linecap:round;stroke-linejoin:round;stroke-miterlimit:10;stroke-opacity:0.20100505;stroke-dasharray:none;stroke-dashoffset:0"
       d="m 1501.9636,3150.6507 c -99.3247,-8.9227 -242.8577,-33.623 -328.5714,-56.5432 C 990.53526,3045.2108 798.87796,2947.0039 637.32693,2819.4228 570.03036,2766.2769 452.29934,2649.2611 399.65694,2583.1967 237.1405,2379.244 127.06191,2141.8136 71.145825,1874.6252 52.0455,1783.3566 45.97744,1716.7433 45.899859,1597.4824 45.795747,1437.4365 58.873874,1345.9289 105.33107,1181.6424 195.94385,861.20859 369.5265,594.83105 627.6779,380.05616 c 125.33977,-104.27925 320.95525,-212.07044 480,-264.49736 143.1052,-47.172669 249.2495,-67.062378 400,-74.9535 241.5037,-12.641654 469.7009,26.553779 689.1274,118.36541 30.163,12.62066 61.6084,26.4921 69.8788,30.8254 l 15.0371,7.87873 -18.4502,14.71693 c -11.7776,9.39443 -28.5028,15.84889 -46.2459,17.84688 -32.3527,3.64309 -51.3433,16.16717 -74.7982,49.32841 -21.104,29.83744 -27.6013,88.72217 -12.3568,111.98823 12.4214,18.95753 11.6419,21.90787 -3.6208,13.70476 -7.0714,-3.80061 -33.4286,-15.35078 -58.5714,-25.66704 -34.0468,-13.96957 -41.5914,-18.82021 -29.5605,-19.00514 10.0013,-0.15371 22.5158,-6.61018 32.8572,-16.95159 13.3732,-13.37325 16.7033,-21.68961 16.7033,-41.71429 0,-13.75604 -2.7297,-27.74065 -6.066,-31.07692 -4.2784,-4.27838 -0.9105,-11.22132 11.4286,-23.56044 38.7352,-38.73525 16.2598,-75.0664 -62.5714,-101.14573 -26.678,-8.82575 -51.5252,-17.15585 -55.2159,-18.51134 -4.3048,-1.58103 -18.2135,33.5627 -38.7981,98.03287 -31.1902,97.68662 -32.4761,100.39991 -45.9765,97.01153 -7.6388,-1.91724 -27.4654,-6.79914 -44.0591,-10.84868 -16.5936,-4.04954 -24.3845,-7.64715 -17.3131,-7.99468 20.3469,-0.99997 55.762,-40.57687 63.3791,-70.82703 17.8457,-70.87163 -8.5093,-122.29873 -69.3629,-135.349492 -71.2141,-15.272679 -123.5922,31.280992 -123.8907,110.114132 -0.1405,37.18608 9.2288,59.76277 32.6175,78.59438 l 15.8285,12.7444 -19.2857,-3.66842 c -10.6072,-2.01763 -36.3215,-4.03332 -57.1429,-4.47931 -30.1967,-0.6468 -33.5623,-1.51402 -16.6322,-4.28571 l 21.2249,-3.47483 -17.587,-28.57143 c -9.6728,-15.71428 -23.8966,-35.32079 -31.6083,-43.57001 l -14.0213,-14.99858 14.5652,-3.65563 c 27.6923,-6.95034 40.0367,-51.21071 23.3062,-83.56385 -11.448,-22.137964 -39.8456,-29.373338 -107.0841,-27.283773 l -52.8777,1.643277 -1.5558,103.859636 -1.5558,103.85963 -15.5871,3.05275 c -8.5728,1.67901 -30.6586,4.77418 -49.0795,6.87816 -36.3807,4.1553 -43.3974,0.0634 -43.5629,-25.4044 -0.057,-8.38725 -2.7822,-12.44631 -7.2303,-10.75905 -14.6428,5.55437 -101.7202,22.98231 -103.8795,20.79078 -1.2343,-1.25263 -3.999,-11.67341 -6.1439,-23.15728 l -3.8997,-20.87976 47.6758,-10.85164 c 47.3171,-10.76996 47.6619,-10.97805 45.8138,-27.64902 -1.0242,-9.23856 -2.9605,-17.89569 -4.3028,-19.23807 -1.3424,-1.34238 -23.2539,2.03183 -48.6923,7.49826 -25.4383,5.46643 -46.926,9.11698 -47.7504,8.11234 -0.8245,-1.00465 -3.2096,-8.95452 -5.3004,-17.66639 -4.3549,-18.14639 -6.6393,-16.89695 55.0508,-30.10876 38.6205,-8.27112 44.2745,-11.05575 44.1983,-21.76794 -0.1943,-27.25058 -4.95,-27.93168 -80.3713,-11.51032 -39.0334,8.49868 -72.034,16.2942 -73.3347,17.32336 -3.1259,2.47341 33.914,185.17851 39.7473,196.0593 3.5789,6.67584 -5.2363,11.68819 -42.1428,23.9626 -58.5314,19.46649 -59.1095,19.4734 -37.8836,0.45297 32.2672,-28.91452 33.112,-84.08706 2.0994,-137.11103 -26.7134,-45.67345 -59.7285,-51.48379 -135.9085,-23.91865 l -48.47892,17.54175 20.20731,55.31539 c 11.114,30.42347 26.99501,73.95826 35.29111,96.74397 9.5613,26.26072 18.2337,41.4603 23.6873,41.51523 4.7319,0.0474 -18.3,14.4193 -51.18189,31.93698 C 879.60687,500.33257 783.00344,573.00057 671.54476,682.49157 481.66282,869.02139 356.33327,1119.4866 312.34299,1400.3395 c -14.17837,90.5209 -14.17957,296.4633 -0.002,385.6694 48.55071,305.4893 183.38516,560.3702 406.28452,768.0097 119.44886,111.2713 242.51177,189.3371 405.22119,257.055 68.2506,28.4052 114.5915,41.4419 223.8314,62.9687 127.2036,25.0667 192.7139,31.1236 297.0601,27.4652 160.7899,-5.6374 323.5218,-45.9602 491.5113,-121.79 63.0968,-28.4816 156.0705,-78.5528 162.8571,-87.707 1.5715,-2.1196 15.7143,-12.474 31.4286,-23.0097 96.8476,-64.932 223.2267,-186.2284 298.3148,-286.3171 219.1986,-292.1807 305.8436,-649.2617 244.6034,-1008.0584 -22.3302,-130.8297 -71.7455,-278.9387 -127.5884,-382.41186 l -27.5148,-50.98325 62.4097,-91.63297 c 61.0265,-89.60217 62.2148,-91.95491 53.6181,-106.1596 -4.8353,-7.98966 -12.178,-16.61577 -16.3171,-19.1692 -4.3998,-2.71423 -51.4358,5.88446 -113.24,20.70149 l -105.7143,25.34405 -15.1381,-17.84434 -15.1383,-17.84434 33.8009,-3.42457 c 18.5905,-1.88355 35.3018,-4.92555 37.1363,-6.76 1.8345,-1.83446 0.3325,-12.43446 -3.3379,-23.5556 -6.5783,-19.93252 -7.0324,-20.17092 -31.9184,-16.75989 -27.79,3.80903 -40.218,-2.62937 -48.8376,-25.30051 -6.5544,-17.23943 4.5564,-39.33309 31.8175,-63.26861 27.7221,-24.34039 45.8593,-28.20362 64.9702,-13.83873 12.2568,9.21299 15.2168,16.1154 15.2168,35.48431 0,19.91417 2.8302,26.10869 16.4691,36.04714 16.0077,11.66457 16.6879,11.70132 24.2857,1.31069 13.1007,-17.91629 9.7794,-60.1071 -6.6329,-84.26003 -18.3327,-26.97898 -43.1959,-39.85002 -76.979,-39.85002 -33.9468,0 -55.698,11.43175 -84.9227,44.6328 -21.6385,24.58259 -26.6964,37.34416 -30.7112,77.48719 l -1.5089,15.08703 -26.9372,-23.78663 -26.9371,-23.78663 65.5085,-76.63119 c 36.0298,-42.14717 65.5086,-78.96303 65.5086,-81.81302 0,-5.62827 -23.1777,-26.5145 -29.7665,-26.82361 -2.2287,-0.10458 -33.9715,34.52053 -70.5394,76.94466 l -66.4873,77.13477 -27.8075,-21.42049 c -16.1624,-12.4501 -26.6731,-24.69072 -25.0985,-29.22951 1.4899,-4.29497 22.3716,-35.63553 46.4038,-69.64569 l 43.6948,-61.83666 24.4079,16.79312 24.408,16.7931 11.9576,-16.79291 11.9576,-16.79291 -58.7081,-41.25559 c -32.2895,-22.69057 -62.2171,-43.98098 -66.5059,-47.31203 -5.8585,-4.55027 -10.4771,-2.74766 -18.5715,7.24841 -14.8237,18.30663 -13.9382,21.21092 11.6257,38.12829 l 22.3992,14.82311 -48.6747,68.10549 c -30.5306,42.71825 -51.1282,66.6073 -55.2564,64.08635 -3.6199,-2.21053 -27.9115,-17.38923 -53.9812,-33.73045 l -47.3997,-29.7113 23.5761,-3.98315 c 40.6333,-6.86496 78.9348,-50.53984 88.3542,-100.74978 5.754,-30.67159 -5.7125,-64.10325 -28.999,-84.54909 l -20.2801,-17.80611 20.1762,-8.43016 c 11.0969,-4.63658 23.2652,-8.43015 27.0405,-8.43015 10.7106,0 64.4969,31.69029 136.3599,80.34167 370.779,251.01794 618.183,661.25563 671.4116,1113.31391 10.7662,91.4348 10.8741,255.0853 0.2343,355.3303 -36.4657,343.5686 -200.7538,683.6336 -451.3186,934.1985 -290.763,290.7629 -683.5661,452.5166 -1086.0415,447.2246 -37.7143,-0.496 -78.8572,-1.8257 -91.4286,-2.955 z m 81.4512,-37.7365 c 16.7623,-16.7622 23.213,-55.2282 23.9098,-142.5747 l 0.3533,-44.2857 -22.0833,0 -22.0833,0 -4.1107,72.8571 c -4.3678,77.4129 -10.055,92.8572 -34.194,92.8572 -6.6708,0 -17.8437,-4.003 -24.8287,-8.8955 -12.0529,-8.4422 -12.7,-12.8097 -12.7,-85.7142 l 0,-76.8189 -22.8572,0 -22.8571,0 0,80.2838 c 0,86.596 4.8549,106.0191 29.5125,118.0719 24.0141,11.7382 30.093,12.8006 63.5977,11.1153 26.9656,-1.3564 35.9368,-4.492 48.341,-16.8963 l 0,0 z m 125.9336,13.0622 c 63.8686,-6.7282 83.6997,-15.7656 92.3925,-42.105 8.3674,-25.3534 2.8144,-46.0494 -16.779,-62.5362 -13.9632,-11.7492 -14.8668,-14.4702 -7.9477,-23.9325 12.8838,-17.6198 9.6783,-47.1395 -6.9216,-63.7394 -14.4502,-14.4501 -15.9577,-14.681 -79.8872,-12.234 -35.8375,1.3718 -66.7564,4.0915 -68.7087,6.0437 -3.2508,3.2509 11.5921,161.5613 17.949,191.4379 3.1357,14.7373 0.046,14.4247 69.9027,7.0655 z m -294.079,-98.494 c 13.5543,-123.4711 14.0572,-118.5715 -12.1693,-118.5715 l -21.7207,0 -9.8145,92.8572 c -12.8802,121.8598 -13.8588,112.8571 12.2684,112.8571 l 21.8698,0 9.5663,-87.1428 0,0 z m 450.9364,77.7154 c 2.381,-1.4716 4.3292,-12.368 4.3292,-24.2141 0,-21.2005 0.4554,-21.6436 29.0074,-28.2342 42.2703,-9.7571 49.2504,-8.5513 60.473,10.4471 10.2069,17.2788 20.8262,20.3483 46.5571,13.4567 7.8158,-2.0933 11.9985,-6.6097 10.2767,-11.0967 -3.1546,-8.2209 -103.106,-153.6097 -116.0638,-168.8259 -6.5564,-7.6991 -11.8732,-8.3246 -30.5234,-3.5906 -12.4213,3.1528 -22.5841,7.6447 -22.5841,9.982 0,6.6631 -22.1905,172.1301 -25.9689,193.6412 l -3.3866,19.2809 21.7771,-4.0854 c 11.9773,-2.247 23.7252,-5.2894 26.1063,-6.761 l 0,0 z m -620.1648,-58.694 c 4.0719,-20.181 8.3751,-37.6644 9.5627,-38.852 1.1876,-1.1876 19.3353,1.8242 40.3284,6.6928 20.9931,4.8686 39.0141,8.852 40.0466,8.852 1.0326,0 2.9178,-8.9113 4.1893,-19.803 2.1234,-18.1881 0.8928,-20.0904 -15.0891,-23.3267 -55.3984,-11.218 -60.2582,-13.7213 -60.2582,-31.039 0,-9.1219 2.0023,-17.8229 4.4496,-19.3353 2.4472,-1.5125 21.0901,0.8168 41.4286,5.1763 52.8963,11.3381 55.2965,10.9532 58.2756,-9.3444 3.0255,-20.6142 7.8581,-18.2756 -73.6323,-35.6321 l -63.7643,-13.581 -19.7222,100.5855 -19.7223,100.5855 12.058,3.8182 c 28.0319,8.8764 34.0468,3.8752 41.8496,-34.7968 l 0,0 z M 447.23566,938.95579 c 17.20898,-12.51869 40.44225,-55.2004 40.44225,-74.29629 0,-19.38868 -15.17143,-52.49354 -25.953,-56.63079 -5.80605,-2.228 -14.64576,1.7408 -23.41986,10.51485 -13.89978,13.89983 -13.95414,14.33686 -3.95113,31.76612 12.6356,22.01628 5.81735,46.62674 -15.78642,56.98119 -34.26815,16.42429 -96.60387,-24.17977 -96.60387,-62.92559 0,-24.16549 23.15597,-46.62383 42.94987,-41.65589 9.73551,2.44343 13.42561,-0.88251 19.44361,-17.52503 8.35443,-23.10371 3.26283,-30.30994 -21.52989,-30.4716 -38.11046,-0.24857 -76.94755,38.28915 -84.07795,83.42954 -12.94459,81.94829 100.83379,150.02737 168.48639,100.81349 z M 581.84512,757.83665 c 23.63661,-28.09086 42.97564,-54.15228 42.97564,-57.91423 0,-3.76194 -6.23074,-10.9224 -13.84606,-15.91217 -13.63513,-8.93406 -14.30329,-8.5088 -43.85491,27.91423 -16.50485,20.34257 -31.4884,36.96406 -33.29678,36.93663 -1.80838,-0.0286 -30.24732,-23.0744 -63.19763,-51.21554 l -59.90968,-51.16566 -15.89543,15.2288 c -8.74249,8.37583 -15.2117,17.20771 -14.37604,19.6264 2.54875,7.37697 149.79752,130.50765 154.25804,128.99194 2.29197,-0.77886 23.50625,-24.39949 47.14285,-52.4904 l 0,0 z M 703.81624,635.42088 c 28.33377,-22.44074 43.28469,-52.56392 38.56789,-77.70669 -3.72092,-19.83395 -96.55114,-134.51747 -108.8848,-134.51747 -3.67754,0 -12.6052,6.30028 -19.83931,14.00062 l -13.15291,14.00063 45.01399,51.94319 c 59.0464,68.13571 60.03097,70.53301 38.01212,92.55189 -24.96652,24.96652 -36.61915,19.60709 -89.04353,-40.95435 -24.53924,-28.34809 -47.87671,-51.54199 -51.86107,-51.54199 -3.98434,0 -13.19389,6.33308 -20.46563,14.07351 l -13.22138,14.07349 41.14096,45.63679 c 66.53065,73.80107 77.9703,82.26804 106.76665,79.02227 15.78325,-1.77903 32.44582,-9.08092 46.96702,-20.58189 l 0,0 z M 853.19407,514.75851 c 27.9356,-18.78387 54.83697,-39.92745 59.7808,-46.98574 19.196,-27.40618 5.15223,-73.10515 -25.77972,-83.88809 -9.88508,-3.44596 -19.66451,-5.21989 -21.73211,-3.94207 -2.06754,1.27782 -3.75914,-8.02589 -3.75914,-20.67491 0,-31.73821 -23.58589,-52.87858 -54.3864,-48.74736 -22.36949,3.00038 -113.92531,57.95643 -113.92531,68.38325 0,6.5767 102.36628,170.00741 106.48565,170.00741 1.38829,0 25.38057,-15.36862 53.31623,-34.15249 z"
       id="path3718" />
  </g>
</svg>
